<mxfile host="app.diagrams.net" modified="2023-10-19T20:45:21.452Z" agent="Mozilla/5.0 (X11; Linux x86_64) AppleWebKit/537.36 (KHTML, like Gecko) Chrome/118.0.0.0 Safari/537.36" version="22.0.5" etag="KVRHb2547CjQNYXJVw8w" type="github">
  <diagram name="Page-1" id="i7_ZvBknUPLp7aaFmUb_">
    <mxGraphModel>
      <root>
        <mxCell id="0" />
        <mxCell id="1" parent="0" />
      </root>
    </mxGraphModel>
  </diagram>
</mxfile>
